<svg xmlns="http://www.w3.org/2000/svg" viewBox="0 0 245.85 215.95"><defs><style>.cls-1{fill:#439ff5;}.cls-2{fill:#fff;}</style></defs><title>logo_bluebg</title><g id="Layer_2" data-name="Layer 2"><g id="Layer_1-2" data-name="Layer 1"><rect class="cls-1" x="0.08" width="245.77" height="215.95"/><path id="path57" class="cls-2" d="M1.54,113.69,57.3,210.24A11.41,11.41,0,0,0,67.19,216H178.69a11.44,11.44,0,0,0,9.88-5.71l55.75-96.55a11.45,11.45,0,0,0,0-11.42L188.58,5.71A11.44,11.44,0,0,0,178.69,0H67.19A11.42,11.42,0,0,0,57.3,5.7L1.54,102.21A11.45,11.45,0,0,0,1.54,113.69ZM164.31,36.32l41.33,71.56-41.37,71.66-38-65.85a11.41,11.41,0,0,0-9.88-5.71H40.2L81.57,36.32Z"/></g></g></svg>